<svg xmlns="http://www.w3.org/2000/svg" style="display: none;"><symbol id="data-server" viewBox="0 0 64 64"><title>data-server</title><path d="m34 34a3 3 0 1 0 -3-3 3 3 0 0 0 3 3zm0-4a1 1 0 1 1 -1 1 1 1 0 0 1 1-1z"/><path d="m53 30h2v2h-2z"/><path d="m49 30h2v2h-2z"/><path d="m45 30h2v2h-2z"/><path d="m34 40a3 3 0 1 0 3 3 3 3 0 0 0 -3-3zm0 4a1 1 0 1 1 1-1 1 1 0 0 1 -1 1z"/><path d="m53 42h2v2h-2z"/><path d="m49 42h2v2h-2z"/><path d="m45 42h2v2h-2z"/><path d="m41 42h2v2h-2z"/><path d="m41 30h2v2h-2z"/><path d="m59 15a3 3 0 0 0 -3-3h-13v-5a5.006 5.006 0 0 0 -5-5h-28a5.006 5.006 0 0 0 -5 5v50a5.006 5.006 0 0 0 5 5h28a5.006 5.006 0 0 0 5-5v-7h13a3 3 0 0 0 3-3v-8a2.981 2.981 0 0 0 -.78-2 2.981 2.981 0 0 0 .78-2v-8a2.981 2.981 0 0 0 -.78-2 2.981 2.981 0 0 0 .78-2zm-2 0v8a1 1 0 0 1 -1 1h-26a1 1 0 0 1 -1-1v-8a1 1 0 0 1 1-1h26a1 1 0 0 1 1 1zm0 12v8a1 1 0 0 1 -1 1h-26a1 1 0 0 1 -1-1v-8a1 1 0 0 1 1-1h26a1 1 0 0 1 1 1zm-40-23h14v1a1 1 0 0 1 -1 1h-12a1 1 0 0 1 -1-1zm24 53a3 3 0 0 1 -3 3h-28a3 3 0 0 1 -3-3v-50a3 3 0 0 1 3-3h5v1a3 3 0 0 0 3 3h12a3 3 0 0 0 3-3v-1h5a3 3 0 0 1 3 3v5h-11a3 3 0 0 0 -3 3v8a2.981 2.981 0 0 0 .78 2 2.981 2.981 0 0 0 -.78 2v8a2.981 2.981 0 0 0 .78 2 2.981 2.981 0 0 0 -.78 2v8a3 3 0 0 0 3 3h11zm16-10a1 1 0 0 1 -1 1h-26a1 1 0 0 1 -1-1v-8a1 1 0 0 1 1-1h26a1 1 0 0 1 1 1z"/><path d="m34 22a3 3 0 1 0 -3-3 3 3 0 0 0 3 3zm0-4a1 1 0 1 1 -1 1 1 1 0 0 1 1-1z"/><path d="m53 18h2v2h-2z"/><path d="m49 18h2v2h-2z"/><path d="m45 18h2v2h-2z"/><path d="m41 18h2v2h-2z"/><path d="m19 16h4v2h-4z"/><path d="m15 16h2v2h-2z"/><path d="m11 16h2v2h-2z"/><path d="m21 20h4v2h-4z"/><path d="m17 20h2v2h-2z"/><path d="m13 20h2v2h-2z"/><path d="m19 28h4v2h-4z"/><path d="m15 28h2v2h-2z"/><path d="m11 28h2v2h-2z"/><path d="m21 32h4v2h-4z"/><path d="m17 32h2v2h-2z"/><path d="m13 32h2v2h-2z"/><path d="m19 40h4v2h-4z"/><path d="m15 40h2v2h-2z"/><path d="m11 40h2v2h-2z"/><path d="m21 44h4v2h-4z"/><path d="m17 44h2v2h-2z"/><path d="m13 44h2v2h-2z"/></symbol><symbol id="writing" viewBox="0 0 64 64"><title>writing</title><path d="m61 32h-10a1 1 0 0 0 -1-1h-8a1 1 0 0 0 -1 1v1h-1.34a3.02 3.02 0 0 1 -2.123-.877l-2.32-2.32a13.091 13.091 0 0 0 -5.844-3.358l9.594-16.617a3.991 3.991 0 0 0 .533-1.988 4 4 0 0 0 -7.466-2.01l-11.645 20.17-5.065-.009h-.041a8.948 8.948 0 0 0 -6.341 2.634l-5.642 5.655a3.825 3.825 0 0 0 2.7 6.54 3.8 3.8 0 0 0 2.707-1.113l4.83-4.83a3.02 3.02 0 0 1 2.123-.877h.109l-6.235 10.8a.993.993 0 0 0 -.132.44l-.402 6.7a1 1 0 0 0 1.549.894l5.6-3.7a1 1 0 0 0 .315-.333l1.623-2.801h22.913a1 1 0 0 0 1 1h8a1 1 0 0 0 1-1h10a1 1 0 0 0 1-1v-12a1 1 0 0 0 -1-1zm-37 4a1.993 1.993 0 0 1 -1.2 1.829l1.178-2.039a2.1 2.1 0 0 1 .022.21zm-3.607 2h-4.393c-.084 0-.162.02-.245.025l14.509-25.125 3.468 2zm-7.22 6.827a3.957 3.957 0 0 0 2.615 1.152l-.553.956-3.469-2 .668-1.158a3.984 3.984 0 0 0 .739 1.05zm18.091-33.664.5-.868 3.467 2-.5.867zm5.236-5.063a2.027 2.027 0 0 1 1 1.745 1.968 1.968 0 0 1 -.266.99l-1 1.735-3.467-2 1-1.731a2.012 2.012 0 0 1 2.733-.739zm-20.84 25.9a5.035 5.035 0 0 0 -3.537 1.463l-4.83 4.83a1.894 1.894 0 0 1 -2.586 0 1.838 1.838 0 0 1 -.54-1.307 1.812 1.812 0 0 1 .541-1.29l5.646-5.656a7.041 7.041 0 0 1 4.964-2.05l3.917.01-2.311 4zm-4.36 14.974 2.4 1.384-2.582 1.705zm4.7-2.974a2 2 0 0 1 0-4h6a4 4 0 0 0 3.224-6.368l3.109-5.385a11.078 11.078 0 0 1 5.47 2.97l2.32 2.32a5.035 5.035 0 0 0 3.537 1.463h1.34v9zm33 1h-6v-12h6zm11-1h-9v-10h9z"/><path d="m2 55h60v2h-60z"/><path d="m2 59h60v2h-60z"/></symbol><symbol id="document" viewBox="0 0 64 64"><title>document</title><path d="m55.9 44.553a1 1 0 0 0 -.9-.553h-46a1 1 0 0 0 -.895.553l-6 12a1 1 0 0 0 -.105.447v3a2 2 0 0 0 2 2h56a2 2 0 0 0 2-2v-3a1 1 0 0 0 -.1-.447zm-46.282 1.447h44.764l5 10h-54.764zm-5.618 14v-2h56v2z"/><path d="m10 52h2v2h-2z"/><path d="m14 52h2v2h-2z"/><path d="m18 52h28v2h-28z"/><path d="m48 52h2v2h-2z"/><path d="m52 52h2v2h-2z"/><path d="m15 48h2v2h-2z"/><path d="m11 48h2v2h-2z"/><path d="m19 48h2v2h-2z"/><path d="m23 48h2v2h-2z"/><path d="m27 48h2v2h-2z"/><path d="m31 48h2v2h-2z"/><path d="m35 48h2v2h-2z"/><path d="m39 48h2v2h-2z"/><path d="m43 48h2v2h-2z"/><path d="m47 48h2v2h-2z"/><path d="m51 48h2v2h-2z"/><path d="m57 2h-50a5.006 5.006 0 0 0 -5 5v28a5.006 5.006 0 0 0 5 5h50a5.006 5.006 0 0 0 5-5v-28a5.006 5.006 0 0 0 -5-5zm-9 16h-6v-6.586l6 6zm-7 2h7v18h-32v-27a1 1 0 0 1 1-1h23v9a1 1 0 0 0 1 1zm16 18h-7v-21a1 1 0 0 0 -.293-.707l-8-8a1 1 0 0 0 -.707-.293h-24a3 3 0 0 0 -3 3v27h-7a3 3 0 0 1 -3-3v-28a3 3 0 0 1 3-3h50a3 3 0 0 1 3 3v5h-1a3 3 0 0 0 -3 3v12a3 3 0 0 0 3 3h1v5a3 3 0 0 1 -3 3zm3-24v14h-1a1 1 0 0 1 -1-1v-12a1 1 0 0 1 1-1z"/><path d="m20 18h16v2h-16z"/><path d="m20 14h4v2h-4z"/><path d="m26 14h6v2h-6z"/><path d="m20 24h24v2h-24z"/><path d="m20 28h24v2h-24z"/><path d="m20 32h24v2h-24z"/></symbol></svg>